# File created by Blade
# Date/Time:  Thu Sep 25 18:48:06 2014
# Frame Rate: 120.000 fps
#------------------------------------------------------
:FULLY-SPECIFIED
:DEGREES
1874
root 0.930418 32.878593 3.374597 5.906655 -8.456930 -0.574557
Spine -22.647740 0.189045 -1.176360
Head 17.537326 18.038299 0.065099
LeftShoulder 4.650761 28.575891 3.710250
LeftArm 138.986627 57.892551 46.334771
LeftForeArm 27.873151 -0.000000 121.921235
LeftHand -0.702966 -0.000000 -5.870225
LeftHandThumb1 -26.253704 0.000000 33.147579
RightShoulder -18.582444 22.477117 -41.093598
RightArm 108.768913 33.960724 75.464500
RightForeArm 28.769799 -0.000000 150.653145
RightHand 12.198360 0.000000 12.778122
RightHandThumb1 -24.326973 -0.000000 -32.862282
LeftUpLeg 6.017888 16.234119 4.638688
LeftLeg -3.226915 -0.000000 0.000000
LeftFoot -9.611735 3.489379 -16.813051
LeftToeBase 11.446305 -0.000000 -0.000000
RightUpLeg 2.045709 -4.664422 -6.285632
RightLeg -1.128437 -0.000000 0.000000
RightFoot -5.574448 -0.453650 5.133751
RightToeBase 0.030127 -0.000000 -0.000000
1875
root 0.926341 32.877441 3.381098 5.916783 -8.439195 -0.577803
Spine -22.637213 0.164929 -1.178594
Head 17.473909 18.075838 0.012080
LeftShoulder 4.671671 28.592109 3.746708
LeftArm 138.967173 57.946552 46.295723
LeftForeArm 27.892824 -0.000000 121.913549
LeftHand -0.725235 -0.000000 -5.925824
LeftHandThumb1 -26.253704 0.000000 33.147579
RightShoulder -18.584322 22.525612 -41.099264
RightArm 108.706031 33.859950 75.397574
RightForeArm 28.720130 -0.000000 150.647419
RightHand 12.210789 -0.000000 12.756485
RightHandThumb1 -24.326973 -0.000000 -32.862282
LeftUpLeg 6.026587 16.200972 4.647869
LeftLeg -3.243793 -0.000000 0.000000
LeftFoot -9.625723 3.497858 -16.775533
LeftToeBase 11.560359 -0.000000 -0.000000
RightUpLeg 2.073247 -4.724200 -6.275706
RightLeg -1.171757 -0.000000 0.000000
RightFoot -5.567933 -0.424421 5.099002
RightToeBase 0.056746 -0.000000 -0.000000
1876
root 0.923260 32.876753 3.386311 5.940959 -8.437355 -0.580694
Spine -22.643609 0.170543 -1.183861
Head 17.400497 18.073208 -0.088525
LeftShoulder 4.677462 28.579444 3.729148
LeftArm 138.950425 57.953077 46.257749
LeftForeArm 27.844544 0.000000 121.906881
LeftHand -0.674102 -0.000000 -6.006249
LeftHandThumb1 -26.253704 0.000000 33.147579
RightShoulder -18.558668 22.498645 -41.046773
RightArm 108.777871 33.765230 75.431695
RightForeArm 28.781902 -0.000000 150.622773
RightHand 12.231376 -0.000000 12.895757
RightHandThumb1 -24.326973 -0.000000 -32.862282
LeftUpLeg 6.017787 16.191393 4.651420
LeftLeg -3.253472 -0.000000 0.000000
LeftFoot -9.606933 3.496400 -16.867687
LeftToeBase 11.441815 -0.000000 -0.000000
RightUpLeg 2.081960 -4.748497 -6.268459
RightLeg -1.218286 -0.000000 0.000000
RightFoot -5.536552 -0.399290 5.097354
RightToeBase 0.001944 -0.000000 -0.000000
1877
root 0.919829 32.876426 3.389802 5.972703 -8.442740 -0.589881
Spine -22.650847 0.168902 -1.168993
Head 17.320373 18.097140 -0.205855
LeftShoulder 4.685154 28.546555 3.707394
LeftArm 138.941606 57.978008 46.232637
LeftForeArm 27.794511 -0.000000 121.868265
LeftHand -0.518956 0.000000 -6.057660
LeftHandThumb1 -26.253704 0.000000 33.147579
RightShoulder -18.510438 22.455821 -40.968992
RightArm 108.933835 33.678047 75.524036
RightForeArm 28.927610 -0.000000 150.577568
RightHand 12.287537 0.000000 13.281351
RightHandThumb1 -24.326973 -0.000000 -32.862282
LeftUpLeg 5.997912 16.198479 4.657562
LeftLeg -3.261474 -0.000000 0.000000
LeftFoot -9.607013 3.506131 -16.856951
LeftToeBase 11.415776 -0.000000 -0.000000
RightUpLeg 2.073010 -4.761666 -6.254324
RightLeg -1.247712 -0.000000 0.000000
RightFoot -5.549196 -0.370315 5.157625
RightToeBase 0.110621 -0.000000 -0.000000
1878
root 0.917196 32.875674 3.394159 6.001489 -8.451538 -0.588357
Spine -22.661837 0.187110 -1.178758
Head 17.250965 18.097025 -0.294384
LeftShoulder 4.730072 28.527164 3.731260
LeftArm 139.015539 57.950269 46.281452
LeftForeArm 27.827850 0.000000 121.912005
LeftHand -0.695572 -0.000000 -6.099107
LeftHandThumb1 -26.253704 0.000000 33.147579
RightShoulder -18.484690 22.479119 -40.959986
RightArm 108.975751 33.574389 75.586733
RightForeArm 28.987824 0.000000 150.571960
RightHand 12.288563 0.000000 13.532379
RightHandThumb1 -24.326973 -0.000000 -32.862282
LeftUpLeg 5.982122 16.170459 4.650178
LeftLeg -3.266927 -0.000000 0.000000
LeftFoot -9.627962 3.525356 -16.843753
LeftToeBase 11.517501 -0.000000 -0.000000
RightUpLeg 2.071602 -4.780844 -6.252023
RightLeg -1.292684 -0.000000 0.000000
RightFoot -5.510106 -0.365099 5.080304
RightToeBase -0.006827 -0.000000 0.000000
1879
root 0.913557 32.875013 3.398321 6.034280 -8.465981 -0.588176
Spine -22.672378 0.198654 -1.181876
Head 17.196905 18.154523 -0.347829
LeftShoulder 4.734046 28.507062 3.709480
LeftArm 139.029447 57.926157 46.301535
LeftForeArm 27.810094 -0.000000 121.937018
LeftHand -0.714633 0.000000 -6.156944
LeftHandThumb1 -26.253704 0.000000 33.147579
RightShoulder -18.454396 22.455430 -40.926832
RightArm 109.058259 33.473997 75.647372
RightForeArm 29.006075 -0.000000 150.569432
RightHand 12.350873 -0.000000 13.749563
RightHandThumb1 -24.326973 -0.000000 -32.862282
LeftUpLeg 5.963956 16.170182 4.647865
LeftLeg -3.281444 -0.000000 0.000000
LeftFoot -9.625293 3.553884 -16.869286
LeftToeBase 11.497899 -0.000000 -0.000000
RightUpLeg 2.065947 -4.778674 -6.247821
RightLeg -1.337468 -0.000000 0.000000
RightFoot -5.499478 -0.351196 5.099950
RightToeBase 0.022134 -0.000000 -0.000000
1880
root 0.910004 32.874553 3.402601 6.065225 -8.495670 -0.592960
Spine -22.683079 0.209577 -1.172975
Head 17.148167 18.241476 -0.385209
LeftShoulder 4.709005 28.506074 3.669676
LeftArm 139.030332 57.907916 46.323592
LeftForeArm 27.806749 -0.000000 121.969500
LeftHand -0.761884 -0.000000 -6.202008
LeftHandThumb1 -26.253704 0.000000 33.147579
RightShoulder -18.409685 22.391470 -40.861613
RightArm 109.188170 33.378966 75.719497
RightForeArm 28.988226 0.000000 150.550107
RightHand 12.225428 0.000000 13.818561
RightHandThumb1 -24.326973 -0.000000 -32.862282
LeftUpLeg 5.951382 16.161403 4.645072
LeftLeg -3.281035 -0.000000 0.000000
LeftFoot -9.659442 3.605252 -16.810987
LeftToeBase 11.548775 -0.000000 -0.000000
RightUpLeg 2.057322 -4.771122 -6.235829
RightLeg -1.383636 -0.000000 0.000000
RightFoot -5.473105 -0.305621 5.092421
RightToeBase -0.008508 -0.000000 0.000000
1881
root 0.906432 32.873901 3.406616 6.100808 -8.541204 -0.589632
Spine -22.703988 0.253608 -1.198540
Head 17.125331 18.301929 -0.367729
LeftShoulder 4.697298 28.467106 3.647145
LeftArm 139.096967 57.930981 46.404639
LeftForeArm 27.796895 -0.000000 121.981441
LeftHand -0.778397 -0.000000 -6.203148
LeftHandThumb1 -26.253704 0.000000 33.147579
RightShoulder -18.391552 22.356654 -40.828492
RightArm 109.224828 33.291075 75.740146
RightForeArm 29.039957 0.000000 150.534197
RightHand 12.252906 -0.000000 13.901768
RightHandThumb1 -24.326973 -0.000000 -32.862282
LeftUpLeg 5.938046 16.175674 4.637786
LeftLeg -3.303516 -0.000000 0.000000
LeftFoot -9.622912 3.593271 -16.897970
LeftToeBase 11.468939 -0.000000 -0.000000
RightUpLeg 2.033834 -4.727034 -6.239801
RightLeg -1.402613 -0.000000 0.000000
RightFoot -5.493545 -0.327237 5.161526
RightToeBase 0.100177 -0.000000 -0.000000
1882
root 0.901898 32.872902 3.411728 6.130251 -8.583368 -0.593790
Spine -22.713522 0.273606 -1.208903
Head 17.109614 18.416282 -0.301149
LeftShoulder 4.644521 28.569058 3.634804
LeftArm 138.981628 57.857329 46.325661
LeftForeArm 27.783669 -0.000000 121.988099
LeftHand -0.772266 0.000000 -6.207243
LeftHandThumb1 -26.253704 0.000000 33.147579
RightShoulder -18.381670 22.360818 -40.810918
RightArm 109.219536 33.176644 75.756731
RightForeArm 29.194234 -0.000000 150.521796
RightHand 12.255369 -0.000000 14.003247
RightHandThumb1 -24.326973 -0.000000 -32.862282
LeftUpLeg 5.929276 16.181147 4.640579
LeftLeg -3.310729 -0.000000 0.000000
LeftFoot -9.618636 3.618742 -16.924320
LeftToeBase 11.382060 -0.000000 -0.000000
RightUpLeg 2.023526 -4.706755 -6.232452
RightLeg -1.441761 -0.000000 0.000000
RightFoot -5.461611 -0.317765 5.111187
RightToeBase -0.007127 -0.000000 0.000000
1883
root 0.898360 32.872004 3.415169 6.163557 -8.615637 -0.598011
Spine -22.717345 0.292814 -1.216126
Head 17.073449 18.536431 -0.282601
LeftShoulder 4.588075 28.520516 3.583207
LeftArm 139.011718 57.925117 46.382962
LeftForeArm 27.758286 -0.000000 122.007592
LeftHand -0.704609 -0.000000 -6.355297
LeftHandThumb1 -26.253704 0.000000 33.147579
RightShoulder -18.420695 22.349682 -40.818033
RightArm 109.213246 33.034694 75.803630
RightForeArm 29.181821 -0.000000 150.517792
RightHand 12.181268 -0.000000 14.469746
RightHandThumb1 -24.326973 -0.000000 -32.862282
LeftUpLeg 5.911618 16.177204 4.639354
LeftLeg -3.317646 -0.000000 0.000000
LeftFoot -9.634707 3.646248 -16.895377
LeftToeBase 11.431915 -0.000000 -0.000000
RightUpLeg 2.003771 -4.697250 -6.226324
RightLeg -1.463697 -0.000000 0.000000
RightFoot -5.476812 -0.279456 5.147373
RightToeBase 0.055825 -0.000000 -0.000000
1884
root 0.894755 32.870509 3.420134 6.188557 -8.654277 -0.603376
Spine -22.714697 0.327312 -1.223795
Head 17.012666 18.603280 -0.291133
LeftShoulder 4.568771 28.532909 3.553831
LeftArm 139.013520 57.945829 46.404863
LeftForeArm 27.755305 -0.000000 121.993408
LeftHand -0.686796 -0.000000 -6.227636
LeftHandThumb1 -26.253704 0.000000 33.147579
RightShoulder -18.444283 22.316001 -40.797947
RightArm 109.231670 32.970131 75.804459
RightForeArm 29.114476 -0.000000 150.507795
RightHand 12.227383 -0.000000 14.542223
RightHandThumb1 -24.326973 -0.000000 -32.862282
LeftUpLeg 5.910435 16.157516 4.641611
LeftLeg -3.331923 -0.000000 0.000000
LeftFoot -9.648398 3.693655 -16.925333
LeftToeBase 11.429538 -0.000000 -0.000000
RightUpLeg 1.992187 -4.678855 -6.217791
RightLeg -1.488900 -0.000000 0.000000
RightFoot -5.462092 -0.288711 5.097906
RightToeBase -0.008102 -0.000000 0.000000
